<svg width="1600" height="1000" viewBox="0 0 1600 1000" fill="none" xmlns="http://www.w3.org/2000/svg">
  <defs>
    <linearGradient id="bg" x1="0" y1="0" x2="1600" y2="1000" gradientUnits="userSpaceOnUse">
      <stop stop-color="#060610"/>
      <stop offset="0.5" stop-color="#0A0A18"/>
      <stop offset="1" stop-color="#04040B"/>
    </linearGradient>
    <radialGradient id="a1" cx="0" cy="0" r="1" gradientUnits="userSpaceOnUse" gradientTransform="translate(500 320) rotate(25) scale(900 650)">
      <stop stop-color="#22D3EE" stop-opacity="0.23"/>
      <stop offset="1" stop-color="#22D3EE" stop-opacity="0"/>
    </radialGradient>
    <radialGradient id="a2" cx="0" cy="0" r="1" gradientUnits="userSpaceOnUse" gradientTransform="translate(1160 420) rotate(-20) scale(860 620)">
      <stop stop-color="#A855F7" stop-opacity="0.24"/>
      <stop offset="1" stop-color="#A855F7" stop-opacity="0"/>
    </radialGradient>
  </defs>
  <rect width="1600" height="1000" fill="url(#bg)"/>
  <circle cx="500" cy="320" r="580" fill="url(#a1)"/>
  <circle cx="1160" cy="420" r="560" fill="url(#a2)"/>
  <path d="M260 780C420 560 610 450 820 450C1030 450 1220 560 1380 780" stroke="rgba(255,255,255,0.22)" stroke-width="10" stroke-linecap="round"/>
  <path d="M300 780C450 595 625 500 820 500C1015 500 1190 595 1340 780" stroke="rgba(34,211,238,0.3)" stroke-width="4" stroke-linecap="round"/>
  <path d="M280 780C435 580 615 475 820 475C1025 475 1205 580 1360 780" stroke="rgba(168,85,247,0.28)" stroke-width="4" stroke-linecap="round"/>
  <text x="92" y="142" fill="rgba(255,255,255,0.78)" font-size="54" font-family="ui-sans-serif, system-ui, -apple-system, Segoe UI, Roboto">
    Arc of Lights
  </text>
  <text x="94" y="190" fill="rgba(255,255,255,0.55)" font-size="22" font-family="ui-sans-serif, system-ui, -apple-system, Segoe UI, Roboto">
    Destination / Bali
  </text>
</svg>
