<svg width="1600" height="1000" viewBox="0 0 1600 1000" fill="none" xmlns="http://www.w3.org/2000/svg">
  <defs>
    <linearGradient id="bg" x1="0" y1="0" x2="1600" y2="1000" gradientUnits="userSpaceOnUse">
      <stop stop-color="#070710"/>
      <stop offset="0.45" stop-color="#0B0B18"/>
      <stop offset="1" stop-color="#05050C"/>
    </linearGradient>
    <radialGradient id="p1" cx="0" cy="0" r="1" gradientUnits="userSpaceOnUse" gradientTransform="translate(430 270) rotate(35) scale(720 520)">
      <stop stop-color="#A855F7" stop-opacity="0.65"/>
      <stop offset="1" stop-color="#A855F7" stop-opacity="0"/>
    </radialGradient>
    <radialGradient id="p2" cx="0" cy="0" r="1" gradientUnits="userSpaceOnUse" gradientTransform="translate(1230 340) rotate(-25) scale(760 560)">
      <stop stop-color="#22D3EE" stop-opacity="0.5"/>
      <stop offset="1" stop-color="#22D3EE" stop-opacity="0"/>
    </radialGradient>
    <filter id="blur" x="-40" y="-40" width="1680" height="1080" filterUnits="userSpaceOnUse">
      <feGaussianBlur stdDeviation="18"/>
    </filter>
  </defs>
  <rect width="1600" height="1000" fill="url(#bg)"/>
  <g filter="url(#blur)">
    <circle cx="430" cy="270" r="520" fill="url(#p1)"/>
    <circle cx="1230" cy="340" r="560" fill="url(#p2)"/>
  </g>
  <path d="M290 740C510 590 640 690 780 620C920 550 1030 430 1310 520" stroke="rgba(255,255,255,0.26)" stroke-width="3" stroke-linecap="round"/>
  <path d="M310 770C540 610 670 720 820 640C980 555 1100 460 1340 545" stroke="rgba(168,85,247,0.35)" stroke-width="2" stroke-linecap="round"/>
  <path d="M285 720C500 575 640 650 770 600C900 550 1010 420 1295 505" stroke="rgba(34,211,238,0.35)" stroke-width="2" stroke-linecap="round"/>
  <text x="92" y="142" fill="rgba(255,255,255,0.78)" font-size="54" font-family="ui-sans-serif, system-ui, -apple-system, Segoe UI, Roboto">
    Aurora Vows
  </text>
  <text x="94" y="190" fill="rgba(255,255,255,0.55)" font-size="22" font-family="ui-sans-serif, system-ui, -apple-system, Segoe UI, Roboto">
    Wedding / Udaipur
  </text>
</svg>
